<svg width="32" height="32" viewBox="0 0 32 32" fill="none" xmlns="http://www.w3.org/2000/svg">
<path d="M1.81958 3.7019H3.70193V5.58426H1.81958V3.7019Z" fill="#83D947"/>
<path d="M28.1726 14.9961H30.055V16.8785H28.1726V14.9961Z" fill="#32BEA6"/>
<path d="M14.9958 27.2314V29.1138H15.937L16.5645 28.1726L15.937 27.2314H14.9958Z" fill="#9D6B5D"/>
<path d="M15.9373 27.2314H16.8784V29.1138H15.9373V27.2314Z" fill="#895050"/>
<path d="M15.0586 0V7.52941H15.9998L16.6272 3.76471L15.9998 0H15.0586Z" fill="#FF6B6B"/>
<path d="M19.9905 5.03076L22.6522 2.36907L23.983 3.69989L21.3213 6.36159L19.9905 5.03076Z" fill="#FFB454"/>
<path d="M19.9893 15.6777L21.3201 14.3469L23.9818 17.0086L22.6509 18.3394L19.9893 15.6777Z" fill="#FFB454"/>
<path d="M4.70605 20.7058H6.58841V24.4705H4.70605V20.7058Z" fill="#4793FF"/>
<path d="M4.70605 28.2354H6.58841V32.0001H4.70605V28.2354Z" fill="#4793FF"/>
<path d="M7.5293 25.4119H11.294V27.2942H7.5293V25.4119Z" fill="#4793FF"/>
<path d="M0 25.4119H3.76471V27.2942H0V25.4119Z" fill="#4793FF"/>
<path d="M25.4121 20.7058H27.2945V24.4705H25.4121V20.7058Z" fill="#FFB454"/>
<path d="M25.4121 28.2351H27.2945V31.9998H25.4121V28.2351Z" fill="#FFB454"/>
<path d="M28.2354 25.4116H32.0001V27.294H28.2354V25.4116Z" fill="#FFB454"/>
<path d="M20.7061 25.4116H24.4708V27.294H20.7061V25.4116Z" fill="#FFB454"/>
<path d="M16 0H16.9412V7.52941H16V0Z" fill="#FF3D7D"/>
<path d="M15.0586 13.1765V20.7059H15.9998L16.6272 16.9412L15.9998 13.1765H15.0586Z" fill="#FF6B6B"/>
<path d="M16 13.1765H16.9412V20.7059H16V13.1765Z" fill="#FF3D7D"/>
<path d="M8.01147 17.0073L10.6732 14.3456L12.004 15.6765L9.3423 18.3381L8.01147 17.0073Z" fill="#FFE278"/>
<path d="M8.01257 3.69849L9.3434 2.36766L12.0051 5.02935L10.6743 6.36018L8.01257 3.69849Z" fill="#FFE278"/>
<path d="M18.8237 9.41187H26.3532V11.2942H18.8237V9.41187Z" fill="#FF3D7D"/>
<path d="M5.64697 9.41187H13.1764V11.2942H5.64697V9.41187Z" fill="#FF6B6B"/>
</svg>
