<svg width="182" height="35" viewBox="0 0 182 35" fill="none" xmlns="http://www.w3.org/2000/svg">
<path d="M20 0C17.2 0 14.6 0.6 12.2 1.6C10.4 2.4 8.7 3.4 7.2 4.6C6.4 5.3 5.7 6 5.1 6.7C3 9 1.4 11.9 0.6 15C0.2 16.6 0 18.3 0 20V27.8V32V35H3L18 20H18.8H23L34 9H29.8L21.8 17H21H17H16.8L3 30.8V20C3 15.7 4.6 11.8 7.2 8.8C7.8 8 8.6 7.3 9.4 6.7C10.1 6.1 10.9 5.6 11.6 5.2C12.5 4.7 13.5 4.2 14.5 3.9C16.2 3.3 18.1 3 20 3H37V15C37 24.4 29.4 32 20 32H10L7 35H20C31 35 40 26 40 15V0H20Z" fill="white"/>
<path d="M64 10V1.5C64 0.7 63.3 0 62.5 0H45.5C44.7 0 44 0.7 44 1.5V33.5C44 34.3 44.7 35 45.5 35C46.3 35 47 34.3 47 33.5V20H54C57.9 20 61 23.1 61 27V33.5C61 34.3 61.7 35 62.5 35C63.3 35 64 34.3 64 33.5V27C64 23.4 62.1 20.3 59.2 18.5C62.1 16.7 64 13.6 64 10ZM61 10C61 13.9 57.9 17 54 17H47V3H61V10Z" fill="#272B22"/>
<path d="M182 1.5V33.5C182 34.3 181.3 35 180.5 35C179.7 35 179 34.3 179 33.5V5.1L172.3 16.5C172.1 16.8 171.8 17 171.4 17H169.5C169.1 17 168.8 16.8 168.6 16.5L162 5.1V33.5C162 34.3 161.3 35 160.5 35C159.7 35 159 34.3 159 33.5V1.5C159 0.7 159.7 0 160.5 0H161.4C161.8 0 162.1 0.2 162.3 0.5L170.5 14.5L178.7 0.5C178.9 0.2 179.2 0 179.6 0H180.5C181.3 0 182 0.7 182 1.5Z" fill="#272B22"/>
<path d="M129.7 0.5L122.5 14.5L115.3 0.5C115.1 0.2 114.8 0 114.4 0H113.6C112.9 0 112.4 0.8 112.7 1.5L121 17.5L112.7 33.5C112.4 34.2 112.8 35 113.6 35H114.4C114.8 35 115.1 34.8 115.3 34.5L122.5 20.5L129.7 34.5C129.9 34.8 130.2 35 130.6 35H131.4C132.1 35 132.6 34.2 132.3 33.5L124 17.5L132.3 1.5C132.6 0.8 132.2 0 131.4 0H130.6C130.2 0 129.9 0.2 129.7 0.5Z" fill="#272B22"/>
<path d="M88 33.5C88 34.3 87.3 35 86.5 35H69.5C68.7 35 68 34.3 68 33.5V1.5C68 0.7 68.7 0 69.5 0H86.5C87.3 0 88 0.7 88 1.5C88 2.3 87.3 3 86.5 3H71V17H82.5C83.3 17 84 17.7 84 18.5C84 19.3 83.3 20 82.5 20H71V32H86.5C87.3 32 88 32.7 88 33.5Z" fill="#272B22"/>
<path d="M102 0H93.5C92.7 0 92 0.7 92 1.5V33.5C92 34.3 92.7 35 93.5 35H102C107.5 35 112 30.5 112 25V10C112 4.5 107.5 0 102 0ZM109 25C109 28.9 105.9 32 102 32H95V3H102C105.9 3 109 6.1 109 10V25Z" fill="#272B22"/>
<path d="M156.6 33.7L147.2 1.7C147.1 1.3 146.7 1 146.2 1H144.7C144.2 1 143.9 1.3 143.7 1.7L134.3 33.7C134.1 34.3 134.6 35 135.3 35H136.2C136.7 35 137 34.7 137.2 34.3L139.9 25H151L153.7 34.3C153.8 34.7 154.2 35 154.7 35H155.6C156.3 35 156.8 34.4 156.6 33.7ZM140.8 22L145.5 6.1L150.2 22H140.8Z" fill="#272B22"/>
</svg>
