<svg width="138" height="74" viewBox="0 0 138 74" fill="none" xmlns="http://www.w3.org/2000/svg">
<path d="M20 0C17.2 0 14.6 0.6 12.2 1.6C10.4 2.4 8.7 3.4 7.2 4.6C6.4 5.3 5.7 6 5.1 6.7C3 9 1.4 11.9 0.6 15C0.2 16.6 0 18.3 0 20V27.8V32V35H3L18 20H18.8H23L34 9H29.8L21.8 17H21H17H16.8L3 30.8V20C3 15.7 4.6 11.8 7.2 8.8C7.8 8 8.6 7.3 9.4 6.7C10.1 6.1 10.9 5.6 11.6 5.2C12.5 4.7 13.5 4.2 14.5 3.9C16.2 3.3 18.1 3 20 3H37V15C37 24.4 29.4 32 20 32H10L7 35H20C31 35 40 26 40 15V0H20Z" fill="#38B000"/>
<path d="M20 49V40.5C20 39.7 19.3 39 18.5 39H1.5C0.7 39 0 39.7 0 40.5V72.5C0 73.3 0.7 74 1.5 74C2.3 74 3 73.3 3 72.5V59H10C13.9 59 17 62.1 17 66V72.5C17 73.3 17.7 74 18.5 74C19.3 74 20 73.3 20 72.5V66C20 62.4 18.1 59.3 15.2 57.5C18.1 55.7 20 52.6 20 49ZM17 49C17 52.9 13.9 56 10 56H3V42H17V49Z" fill="#272B22"/>
<path d="M138 40.5V72.5C138 73.3 137.3 74 136.5 74C135.7 74 135 73.3 135 72.5V44.1L128.3 55.5C128.1 55.8 127.8 56 127.4 56H125.5C125.1 56 124.8 55.8 124.6 55.5L118 44.1V72.5C118 73.3 117.3 74 116.5 74C115.7 74 115 73.3 115 72.5V40.5C115 39.7 115.7 39 116.5 39H117.4C117.8 39 118.1 39.2 118.3 39.5L126.5 53.5L134.7 39.5C134.9 39.2 135.2 39 135.6 39H136.5C137.3 39 138 39.7 138 40.5Z" fill="#272B22"/>
<path d="M85.7 39.5L78.5 53.5L71.3 39.5C71.1 39.2 70.8 39 70.4 39H69.6C68.9 39 68.4 39.8 68.7 40.5L77 56.5L68.7 72.5C68.4 73.2 68.8 74 69.6 74H70.4C70.8 74 71.1 73.8 71.3 73.5L78.5 59.5L85.7 73.5C85.9 73.8 86.2 74 86.6 74H87.4C88.1 74 88.6 73.2 88.3 72.5L80 56.5L88.3 40.5C88.6 39.8 88.2 39 87.4 39H86.6C86.2 39 85.9 39.2 85.7 39.5Z" fill="#272B22"/>
<path d="M44 72.5C44 73.3 43.3 74 42.5 74H25.5C24.7 74 24 73.3 24 72.5V40.5C24 39.7 24.7 39 25.5 39H42.5C43.3 39 44 39.7 44 40.5C44 41.3 43.3 42 42.5 42H27V56H38.5C39.3 56 40 56.7 40 57.5C40 58.3 39.3 59 38.5 59H27V71H42.5C43.3 71 44 71.7 44 72.5Z" fill="#272B22"/>
<path d="M58 39H49.5C48.7 39 48 39.7 48 40.5V72.5C48 73.3 48.7 74 49.5 74H58C63.5 74 68 69.5 68 64V49C68 43.5 63.5 39 58 39ZM65 64C65 67.9 61.9 71 58 71H51V42H58C61.9 42 65 45.1 65 49V64Z" fill="#272B22"/>
<path d="M112.6 72.7L103.2 40.7C103.1 40.3 102.7 40 102.2 40H100.7C100.2 40 99.9 40.3 99.7 40.7L90.3 72.7C90.1 73.3 90.6 74 91.3 74H92.2C92.7 74 93 73.7 93.2 73.3L95.9 64H107L109.7 73.3C109.8 73.7 110.2 74 110.7 74H111.6C112.3 74 112.8 73.4 112.6 72.7ZM96.8 61L101.5 45.1L106.2 61H96.8Z" fill="#272B22"/>
</svg>
