<?xml version="1.0" encoding="UTF-8" standalone="no"?>
<svg
   xmlns:dc="http://purl.org/dc/elements/1.1/"
   xmlns:cc="http://creativecommons.org/ns#"
   xmlns:rdf="http://www.w3.org/1999/02/22-rdf-syntax-ns#"
   xmlns:svg="http://www.w3.org/2000/svg"
   xmlns="http://www.w3.org/2000/svg"
   xmlns:sodipodi="http://sodipodi.sourceforge.net/DTD/sodipodi-0.dtd"
   xmlns:inkscape="http://www.inkscape.org/namespaces/inkscape"
   width="210mm"
   height="297mm"
   viewBox="0 0 210 297"
   version="1.1"
   id="svg8"
   inkscape:version="1.0.2 (e86c870, 2021-01-15)"
   sodipodi:docname="top.svg">
  <defs
     id="defs2">
    <linearGradient
       id="paint0_linear"
       x1="0"
       y1="0"
       x2="-46.1649"
       y2="359.772"
       gradientUnits="userSpaceOnUse">
      <stop
         stop-color="#9EF01A"
         id="stop85" />
      <stop
         offset="1"
         stop-color="#38B000"
         id="stop87" />
    </linearGradient>
    <linearGradient
       id="paint1_linear"
       x1="0"
       y1="0"
       x2="-46.1648"
       y2="359.772"
       gradientUnits="userSpaceOnUse">
      <stop
         stop-color="#9EF01A"
         id="stop90" />
      <stop
         offset="1"
         stop-color="#38B000"
         id="stop92" />
    </linearGradient>
    <clipPath
       clipPathUnits="userSpaceOnUse"
       id="clipPath271">
      <rect
         style="fill:#0000ff;fill-rule:evenodd"
         id="rect273"
         width="600"
         height="200"
         x="1.5659699e-06"
         y="-5.0527115e-06" />
    </clipPath>
  </defs>
  <sodipodi:namedview
     id="base"
     pagecolor="#ffffff"
     bordercolor="#666666"
     borderopacity="1.0"
     inkscape:pageopacity="0.0"
     inkscape:pageshadow="2"
     inkscape:zoom="0.98994949"
     inkscape:cx="166.34775"
     inkscape:cy="361.96906"
     inkscape:document-units="mm"
     inkscape:current-layer="g145"
     inkscape:document-rotation="0"
     showgrid="false"
     inkscape:window-width="1528"
     inkscape:window-height="836"
     inkscape:window-x="72"
     inkscape:window-y="27"
     inkscape:window-maximized="1" />
  <metadata
     id="metadata5">
    <rdf:RDF>
      <cc:Work
         rdf:about="">
        <dc:format>image/svg+xml</dc:format>
        <dc:type
           rdf:resource="http://purl.org/dc/dcmitype/StillImage" />
        <dc:title></dc:title>
      </cc:Work>
    </rdf:RDF>
  </metadata>
  <g
     inkscape:label="Capa 1"
     inkscape:groupmode="layer"
     id="layer1">
    <g
       style="fill:none"
       id="g145"
       transform="matrix(0.26458333,0,0,0.26458333,16.031994,60.143936)">
      <g
         id="g222"
         clip-path="url(#clipPath271)">
        <rect
           width="600"
           height="200"
           fill="url(#paint0_linear)"
           id="rect10"
           x="0"
           y="0"
           style="fill:url(#paint0_linear)" />
        <g
           mask="url(#mask0)"
           id="g57">
          <g
             opacity="0.3"
             id="g55">
            <path
               d="m -87,-203.45 c 188.078,-22.629 580.527,-28.362 645.701,129.7439 81.467,197.6331 211.211,264.0131 476.729,46.7681 265.53,-217.245 980.62,-819.196 915.75,-366.601 -64.87,452.5939 57.33,211.21 230.83,254.961"
               stroke="#ccff33"
               id="path15" />
            <path
               d="m -85.2759,-186.168 c 189.6829,-18.463 566.4789,-20.869 631.2339,131.1539 80.273,189.6671 206.173,252.7251 468.212,42.4845 271.2,-213.5814 961.73,-787.0824 926.81,-342.3194 -34.91,444.7637 79.03,202.446 249.29,232.116"
               stroke="#ccff33"
               id="path17" />
            <path
               d="M -83.5517,-168.767 C 107.735,-183.064 468.879,-182.144 533.216,-36.204 612.294,145.498 734.351,205.233 992.904,1.99705 1269.78,-207.92 1935.74,-752.973 1930.78,-316.04 c -4.96,436.933 100.72,193.681 267.75,209.271"
               stroke="#ccff33"
               id="path19" />
            <path
               d="M -81.8275,-151.235 C 111.064,-161.365 456.555,-157.119 520.473,-17.2621 598.357,156.475 716.57,212.887 971.639,16.6555 1254.19,-189.598 1895.58,-706.202 1920.58,-277.1 c 25,429.103 122.41,184.9173 286.21,186.4259"
               stroke="#ccff33"
               id="path21" />
            <path
               d="M -80.1033,-133.557 C 114.392,-139.519 444.231,-131.947 507.73,1.82653 584.42,167.598 698.79,220.688 950.375,31.4607 1238.6,-171.129 1855.42,-659.284 1910.38,-238.012 c 54.95,421.271 144.11,176.152 304.67,163.5799"
               stroke="#ccff33"
               id="path23" />
            <path
               d="m -78.3791,-115.713 c 196.1001,-1.796 510.2851,9.102 573.3671,136.7926 75.495,157.8064 186.021,207.5734 434.122,25.3506 293.9,-198.9262 886.15,-658.6322 971.07,-245.1912 84.91,413.441 165.8,167.3881 323.13,140.7353"
               stroke="#ccff33"
               id="path25" />
            <path
               d="M -76.6549,-97.6857 C 121.05,-95.315 419.582,-81.0906 482.245,40.5172 556.546,190.358 663.229,236.803 907.845,61.5844 1207.42,-133.678 1775.1,-564.935 1889.97,-159.325 c 114.88,405.611 187.51,158.62373 341.61,117.8902"
               stroke="#ccff33"
               id="path27" />
            <path
               d="M -74.9308,-79.4503 C 124.378,-72.9128 407.258,-55.3622 469.502,60.1624 542.609,202.038 645.448,245.16 886.58,76.9461 c 305.25,-191.5981 848.36,-594.4071 993.19,-196.6271 144.83,397.78 209.2,149.859 360.07,95.0448"
               stroke="#ccff33"
               id="path29" />
            <path
               d="M -73.2067,-60.9794 C 127.707,-50.2752 394.934,-29.3984 456.759,80.0432 528.672,213.954 627.668,253.753 865.315,92.5434 1176.24,-95.391 1694.78,-469.751 1869.57,-79.8016 2044.36,310.148 2100.47,61.2928 2248.1,-7.60212"
               stroke="#ccff33"
               id="path31" />
            <path
               d="M -71.4825,-42.2409 C 131.035,-27.3699 382.61,-3.16694 444.017,100.192 514.735,226.137 609.887,262.614 844.051,108.408 1160.65,-75.8622 1654.63,-421.773 1859.37,-39.6547 2064.12,342.464 2111.96,92.6752 2256.36,9.69962"
               stroke="#ccff33"
               id="path33" />
            <path
               d="M -69.7583,-23.1976 C 134.364,-4.15991 370.285,23.3693 431.274,120.645 500.798,238.625 592.107,271.779 822.786,124.578 1145.06,-56.0287 1614.47,-373.491 1849.17,0.797064 2083.87,375.085 2123.46,124.362 2264.62,27.3061"
               stroke="#ccff33"
               id="path35" />
            <path
               d="M -68.0341,-3.80458 C 137.693,19.3999 357.961,50.2553 418.532,141.448 486.861,251.462 574.326,281.294 801.521,141.097 1129.47,-35.8454 1574.31,-324.859 1838.97,41.5985 c 264.66,366.4575 295.98,114.8005 433.91,3.6638"
               stroke="#ccff33"
               id="path37" />
            <path
               d="M -66.3099,15.99 C 141.021,43.3612 345.637,77.5428 405.789,162.652 472.924,264.701 556.546,291.21 780.257,158.018 1113.88,-15.2606 1534.15,-275.826 1828.77,82.8015 2123.38,441.429 2146.44,188.838 2281.15,63.6201"
               stroke="#ccff33"
               id="path39" />
            <path
               d="M -64.5857,36.2484 C 144.35,67.7863 333.313,105.294 393.046,184.32 458.987,278.404 538.765,301.591 758.992,175.403 1098.29,5.78809 1493.99,-226.328 1818.57,124.468 c 324.57,350.797 339.37,97.272 470.84,-42.0263"
               stroke="#ccff33"
               id="path41" />
            <path
               d="M -62.8616,57.0429 C 147.678,92.7476 320.989,133.582 380.304,206.525 445.05,292.643 520.985,312.507 737.727,193.324 1082.7,27.3729 1453.83,-176.295 1808.36,166.671 c 354.54,342.966 361.07,88.508 489.31,-64.872"
               stroke="#ccff33"
               id="path43" />
            <path
               d="m -61.1376,78.459 c 212.1446,39.871 369.8016,84.032 428.6986,150.892 63.551,78.153 135.643,94.694 348.901,-17.484 350.658,-162.2878 697.208,-337.506 1081.698,-2.371 384.49,335.135 382.77,79.743 507.77,-87.717"
               stroke="#ccff33"
               id="path45" />
            <path
               d="M -59.4134,100.596 C 154.336,144.634 296.34,192.12 354.818,252.897 c 62.358,70.188 130.606,83.407 340.38,-21.767 356.332,-158.6239 678.312,-305.3937 1092.762,21.911 414.45,327.305 404.46,70.978 526.23,-110.562"
               stroke="#ccff33"
               id="path47" />
            <path
               d="m -57.6892,123.565 c 215.3532,48.205 341.7052,99.018 399.7642,153.712 61.164,62.222 125.568,72.118 331.858,-26.051 362.007,-154.9601 659.427,-273.2812 1103.827,46.193 444.4,319.474 426.16,62.214 544.69,-133.408"
               stroke="#ccff33"
               id="path49" />
            <path
               d="m -55.965,147.492 c 216.958,52.371 327.657,106.51 385.298,155.121 59.969,54.257 120.53,60.831 323.335,-30.335 367.682,-151.296 640.532,-241.1678 1114.892,70.476 474.36,311.643 447.85,53.449 563.16,-156.253"
               stroke="#ccff33"
               id="path51" />
            <path
               d="M -54.2407,172.506 C 164.322,229.044 259.368,286.509 316.59,329.037 375.365,375.329 432.083,378.58 631.404,294.419 1004.76,146.787 1253.04,85.3636 1757.36,389.176 c 504.32,303.813 469.55,44.685 581.62,-179.098"
               stroke="#ccff33"
               id="path53" />
          </g>
        </g>
      </g>
    </g>
  </g>
</svg>
