<svg width="19" height="16" viewBox="0 0 19 16" fill="none" xmlns="http://www.w3.org/2000/svg">
<path d="M16.9719 4.1416C16.979 4.29907 16.9824 4.45728 16.9824 4.61621C16.9824 9.46899 13.2886 15.0649 6.53345 15.0652C4.45947 15.0652 2.52954 14.4573 0.904297 13.4155C1.19165 13.4495 1.48413 13.4663 1.78027 13.4663C3.50098 13.4663 5.08447 12.8794 6.34155 11.8943C4.73389 11.8645 3.37842 10.8027 2.91064 9.34351C3.13452 9.38647 3.36475 9.40991 3.60083 9.40991C3.93604 9.40991 4.26074 9.36475 4.56934 9.28052C2.88892 8.94409 1.62305 7.45898 1.62305 5.68066C1.62305 5.66406 1.62305 5.64917 1.62354 5.63379C2.11841 5.90894 2.68433 6.07446 3.28687 6.09302C2.30078 5.43506 1.65259 4.3103 1.65259 3.03613C1.65259 2.36328 1.83447 1.73291 2.1499 1.19019C3.96094 3.41235 6.66748 4.87378 9.71973 5.02734C9.65674 4.7583 9.62427 4.47803 9.62427 4.18994C9.62427 2.1626 11.269 0.517822 13.2971 0.517822C14.3535 0.517822 15.3076 0.964355 15.9778 1.67822C16.8145 1.51318 17.6001 1.20752 18.3098 0.786865C18.0352 1.64404 17.4531 2.36328 16.6948 2.81812C17.4377 2.72925 18.1458 2.53223 18.8037 2.23975C18.3123 2.97632 17.689 3.62329 16.9719 4.1416Z" fill="#272B22"/>
</svg>
